<?xml version="1.0" encoding="UTF-8"?>
<svg xmlns="http://www.w3.org/2000/svg" xmlns:xlink="http://www.w3.org/1999/xlink" width="256px" height="256px" viewBox="0 0 256 256" version="1.1">
<g id="surface1">
<path style=" stroke:none;fill-rule:evenodd;fill:rgb(74.117649%,74.117649%,74.117649%);fill-opacity:1;" d="M 45.625 32 L 210.5 32 C 214.25 32 217.625 33.5 220.125 36 C 222.625 38.5 224.125 41.875 224.125 45.625 L 224.125 210.5 C 224.125 214.25 222.625 217.625 220.125 220.125 C 217.625 222.625 214.25 224.125 210.5 224.125 L 45.625 224.125 C 41.875 224.125 38.5 222.625 36 220.125 C 33.5 217.625 32 214.25 32 210.5 L 32 45.625 C 32 41.875 33.5 38.5 36 36 C 38.5 33.5 41.875 32 45.625 32 Z M 45.625 32 "/>
<path style=" stroke:none;fill-rule:evenodd;fill:rgb(25.882354%,25.882354%,25.882354%);fill-opacity:1;" d="M 45.625 32 L 210.5 32 C 214.25 32 217.625 33.5 220.125 36 C 222.625 38.5 224.125 41.875 224.125 45.625 L 224.125 98.125 L 32.125 98.125 L 32.125 45.625 C 32.125 41.875 33.625 38.5 36.125 36 C 38.625 33.5 42 32 45.75 32 Z M 45.625 32 "/>
<path style=" stroke:none;fill-rule:evenodd;fill:rgb(0.784314%,53.333336%,81.960785%);fill-opacity:1;" d="M 52.25 160 L 124 160 L 124 204 L 48.25 204 L 48.25 160 Z M 52.25 160 "/>
<path style=" stroke:none;fill-rule:evenodd;fill:rgb(20%,41.176471%,11.764706%);fill-opacity:1;" d="M 52.25 104 L 124 104 L 124 148 L 48.25 148 L 48.25 104 Z M 52.25 104 "/>
<path style=" stroke:none;fill-rule:evenodd;fill:rgb(18.431373%,36.078432%,11.764706%);fill-opacity:1;" d="M 52.25 148 L 124 148 L 124 152 L 48.25 152 L 48.25 148 Z M 52.25 148 "/>
<path style=" stroke:none;fill-rule:evenodd;fill:rgb(0.784314%,46.666667%,74.117649%);fill-opacity:1;" d="M 52.25 208 L 124 208 L 124 204 L 48.25 204 L 48.25 208 Z M 52.25 208 "/>
<path style=" stroke:none;fill-rule:evenodd;fill:rgb(93.725491%,42.352942%,0%);fill-opacity:1;" d="M 136 148 L 207.75 148 L 207.75 152 L 132 152 L 132 148 Z M 136 148 "/>
<path style=" stroke:none;fill-rule:evenodd;fill:rgb(73.725492%,1.568628%,4.313726%);fill-opacity:1;" d="M 136 208 L 207.75 208 L 207.75 204 L 132 204 L 132 208 Z M 136 208 "/>
<path style=" stroke:none;fill-rule:evenodd;fill:rgb(96.078432%,49.803922%,9.019608%);fill-opacity:1;" d="M 136 104 L 207.75 104 L 207.75 148 L 132 148 L 132 104 Z M 136 104 "/>
<path style=" stroke:none;fill-rule:evenodd;fill:rgb(83.529413%,0%,0%);fill-opacity:1;" d="M 136 160 L 207.75 160 L 207.75 204 L 132 204 L 132 160 Z M 136 160 "/>
<path style=" stroke:none;fill-rule:evenodd;fill:rgb(50.588238%,83.137256%,98.039216%);fill-opacity:1;" d="M 52.25 48 L 207.75 48 L 207.75 92 L 48.25 92 L 48.25 48 Z M 52.25 48 "/>
<path style=" stroke:none;fill-rule:evenodd;fill:rgb(88.235295%,96.078432%,99.607843%);fill-opacity:1;" d="M 80 140 L 80 132 L 72 132 L 72 124 L 80 124 L 80 116 L 88 116 L 88 124 L 96 124 L 96 132 L 88 132 L 88 140 Z M 80 140 "/>
<path style=" stroke:none;fill-rule:evenodd;fill:rgb(88.235295%,96.078432%,99.607843%);fill-opacity:1;" d="M 89.625 195.375 L 84 189.625 L 78.375 195.375 L 72.625 189.625 L 78.375 184 L 72.625 178.375 L 78.375 172.625 L 84 178.375 L 89.625 172.625 L 95.375 178.375 L 89.625 184 L 95.375 189.625 Z M 89.625 195.375 "/>
<path style=" stroke:none;fill-rule:evenodd;fill:rgb(88.235295%,96.078432%,99.607843%);fill-opacity:1;" d="M 155.875 124 L 183.875 124 L 183.875 132 L 155.875 132 Z M 155.875 124 "/>
<path style=" stroke:none;fill-rule:evenodd;fill:rgb(88.235295%,96.078432%,99.607843%);fill-opacity:1;" d="M 155.875 186 L 183.875 186 L 183.875 194 L 155.875 194 Z M 155.875 186 "/>
<path style=" stroke:none;fill-rule:evenodd;fill:rgb(88.235295%,96.078432%,99.607843%);fill-opacity:1;" d="M 155.875 174 L 183.875 174 L 183.875 182 L 155.875 182 Z M 155.875 174 "/>
</g>
</svg>
